<mxfile host="app.diagrams.net" modified="2021-08-13T20:35:55.774Z" agent="5.0 (Windows NT 10.0; Win64; x64) AppleWebKit/537.36 (KHTML, like Gecko) Chrome/92.0.4515.131 Safari/537.36" etag="pBGwFm-VrDbvuyoK2sT3" version="14.9.6" type="github">
  <diagram id="C5RBs43oDa-KdzZeNtuy" name="Page-1">
    <mxGraphModel dx="1422" dy="794" grid="1" gridSize="10" guides="1" tooltips="1" connect="1" arrows="1" fold="1" page="1" pageScale="1" pageWidth="827" pageHeight="1169" math="0" shadow="0">
      <root>
        <mxCell id="WIyWlLk6GJQsqaUBKTNV-0" />
        <mxCell id="WIyWlLk6GJQsqaUBKTNV-1" parent="WIyWlLk6GJQsqaUBKTNV-0" />
        <mxCell id="Yf6FwdHeuCOzOSAr2f3k-1" value="Key&lt;br&gt;&amp;lt;&amp;lt;Class&amp;gt;&amp;gt;" style="rounded=0;whiteSpace=wrap;html=1;" vertex="1" parent="WIyWlLk6GJQsqaUBKTNV-1">
          <mxGeometry x="330" y="50" width="120" height="60" as="geometry" />
        </mxCell>
        <mxCell id="Yf6FwdHeuCOzOSAr2f3k-4" value="" style="endArrow=blockThin;html=1;endFill=0;targetPerimeterSpacing=2;sourcePerimeterSpacing=2;endSize=20;exitX=0.5;exitY=0;exitDx=0;exitDy=0;entryX=0.25;entryY=1;entryDx=0;entryDy=0;" edge="1" parent="WIyWlLk6GJQsqaUBKTNV-1" source="Yf6FwdHeuCOzOSAr2f3k-5" target="Yf6FwdHeuCOzOSAr2f3k-1">
          <mxGeometry width="50" height="50" relative="1" as="geometry">
            <mxPoint x="260" y="290" as="sourcePoint" />
            <mxPoint x="440" y="280" as="targetPoint" />
          </mxGeometry>
        </mxCell>
        <mxCell id="Yf6FwdHeuCOzOSAr2f3k-5" value="DatasetKey&lt;br&gt;&amp;lt;extends Key&amp;gt;" style="rounded=0;whiteSpace=wrap;html=1;" vertex="1" parent="WIyWlLk6GJQsqaUBKTNV-1">
          <mxGeometry x="120" y="270" width="120" height="60" as="geometry" />
        </mxCell>
        <mxCell id="Yf6FwdHeuCOzOSAr2f3k-6" value="FilterKey&lt;br&gt;&amp;lt;extends Key&amp;gt;" style="rounded=0;whiteSpace=wrap;html=1;" vertex="1" parent="WIyWlLk6GJQsqaUBKTNV-1">
          <mxGeometry x="280" y="270" width="120" height="60" as="geometry" />
        </mxCell>
        <mxCell id="Yf6FwdHeuCOzOSAr2f3k-7" value="OrderKey&lt;br&gt;&amp;lt;extends Key&amp;gt;" style="rounded=0;whiteSpace=wrap;html=1;" vertex="1" parent="WIyWlLk6GJQsqaUBKTNV-1">
          <mxGeometry x="450" y="270" width="120" height="60" as="geometry" />
        </mxCell>
        <mxCell id="Yf6FwdHeuCOzOSAr2f3k-8" value="DisplayKey&lt;br&gt;&amp;lt;extends Key&amp;gt;" style="rounded=0;whiteSpace=wrap;html=1;" vertex="1" parent="WIyWlLk6GJQsqaUBKTNV-1">
          <mxGeometry x="609" y="270" width="120" height="60" as="geometry" />
        </mxCell>
        <mxCell id="Yf6FwdHeuCOzOSAr2f3k-9" value="" style="endArrow=blockThin;html=1;endFill=0;targetPerimeterSpacing=2;sourcePerimeterSpacing=2;endSize=20;exitX=0.575;exitY=-0.017;exitDx=0;exitDy=0;exitPerimeter=0;" edge="1" parent="WIyWlLk6GJQsqaUBKTNV-1" source="Yf6FwdHeuCOzOSAr2f3k-6" target="Yf6FwdHeuCOzOSAr2f3k-1">
          <mxGeometry width="50" height="50" relative="1" as="geometry">
            <mxPoint x="210" y="280" as="sourcePoint" />
            <mxPoint x="368" y="122" as="targetPoint" />
            <Array as="points">
              <mxPoint x="383" y="112" />
            </Array>
          </mxGeometry>
        </mxCell>
        <mxCell id="Yf6FwdHeuCOzOSAr2f3k-10" value="" style="endArrow=blockThin;html=1;endFill=0;targetPerimeterSpacing=2;sourcePerimeterSpacing=2;endSize=20;exitX=0.5;exitY=0;exitDx=0;exitDy=0;entryX=0.617;entryY=1;entryDx=0;entryDy=0;entryPerimeter=0;" edge="1" parent="WIyWlLk6GJQsqaUBKTNV-1" source="Yf6FwdHeuCOzOSAr2f3k-7" target="Yf6FwdHeuCOzOSAr2f3k-1">
          <mxGeometry width="50" height="50" relative="1" as="geometry">
            <mxPoint x="220" y="290" as="sourcePoint" />
            <mxPoint x="378" y="132" as="targetPoint" />
          </mxGeometry>
        </mxCell>
        <mxCell id="Yf6FwdHeuCOzOSAr2f3k-11" value="" style="endArrow=blockThin;html=1;endFill=0;targetPerimeterSpacing=2;sourcePerimeterSpacing=2;endSize=20;exitX=0.5;exitY=0;exitDx=0;exitDy=0;entryX=0.75;entryY=1;entryDx=0;entryDy=0;" edge="1" parent="WIyWlLk6GJQsqaUBKTNV-1" source="Yf6FwdHeuCOzOSAr2f3k-8" target="Yf6FwdHeuCOzOSAr2f3k-1">
          <mxGeometry width="50" height="50" relative="1" as="geometry">
            <mxPoint x="230" y="300" as="sourcePoint" />
            <mxPoint x="388" y="142" as="targetPoint" />
          </mxGeometry>
        </mxCell>
        <mxCell id="Yf6FwdHeuCOzOSAr2f3k-12" value="QueryParser&lt;br&gt;&amp;lt;&amp;lt;Class&amp;gt;&amp;gt;" style="rounded=0;whiteSpace=wrap;html=1;" vertex="1" parent="WIyWlLk6GJQsqaUBKTNV-1">
          <mxGeometry x="219" y="500" width="390" height="70" as="geometry" />
        </mxCell>
        <mxCell id="Yf6FwdHeuCOzOSAr2f3k-13" value="" style="endArrow=diamondThin;html=1;endSize=23;sourcePerimeterSpacing=2;targetPerimeterSpacing=2;exitX=0.5;exitY=1;exitDx=0;exitDy=0;endFill=0;entryX=0.192;entryY=-0.014;entryDx=0;entryDy=0;entryPerimeter=0;" edge="1" parent="WIyWlLk6GJQsqaUBKTNV-1" source="Yf6FwdHeuCOzOSAr2f3k-5" target="Yf6FwdHeuCOzOSAr2f3k-12">
          <mxGeometry width="50" height="50" relative="1" as="geometry">
            <mxPoint x="390" y="520" as="sourcePoint" />
            <mxPoint x="250" y="490" as="targetPoint" />
          </mxGeometry>
        </mxCell>
        <mxCell id="Yf6FwdHeuCOzOSAr2f3k-14" value="" style="endArrow=diamondThin;html=1;endSize=23;sourcePerimeterSpacing=2;targetPerimeterSpacing=2;exitX=0.5;exitY=1;exitDx=0;exitDy=0;endFill=0;" edge="1" parent="WIyWlLk6GJQsqaUBKTNV-1" source="Yf6FwdHeuCOzOSAr2f3k-6">
          <mxGeometry width="50" height="50" relative="1" as="geometry">
            <mxPoint x="210" y="340" as="sourcePoint" />
            <mxPoint x="344" y="499" as="targetPoint" />
          </mxGeometry>
        </mxCell>
        <mxCell id="Yf6FwdHeuCOzOSAr2f3k-16" value="" style="endArrow=diamondThin;html=1;endSize=23;sourcePerimeterSpacing=2;targetPerimeterSpacing=2;exitX=0.5;exitY=1;exitDx=0;exitDy=0;entryX=0.75;entryY=0;entryDx=0;entryDy=0;endFill=0;" edge="1" parent="WIyWlLk6GJQsqaUBKTNV-1" source="Yf6FwdHeuCOzOSAr2f3k-7" target="Yf6FwdHeuCOzOSAr2f3k-12">
          <mxGeometry width="50" height="50" relative="1" as="geometry">
            <mxPoint x="220" y="350" as="sourcePoint" />
            <mxPoint x="434" y="520" as="targetPoint" />
          </mxGeometry>
        </mxCell>
        <mxCell id="Yf6FwdHeuCOzOSAr2f3k-17" value="" style="endArrow=diamondThin;html=1;endSize=23;sourcePerimeterSpacing=2;targetPerimeterSpacing=2;exitX=0.5;exitY=1;exitDx=0;exitDy=0;endFill=0;" edge="1" parent="WIyWlLk6GJQsqaUBKTNV-1" source="Yf6FwdHeuCOzOSAr2f3k-8">
          <mxGeometry width="50" height="50" relative="1" as="geometry">
            <mxPoint x="230" y="360" as="sourcePoint" />
            <mxPoint x="570" y="498" as="targetPoint" />
          </mxGeometry>
        </mxCell>
        <mxCell id="Yf6FwdHeuCOzOSAr2f3k-18" value="&lt;br&gt;Datasets.ts&lt;br&gt;&amp;lt;&amp;lt;Depends on QueryParser&amp;gt;&amp;gt;" style="rounded=0;whiteSpace=wrap;html=1;" vertex="1" parent="WIyWlLk6GJQsqaUBKTNV-1">
          <mxGeometry x="304" y="670" width="220" height="180" as="geometry" />
        </mxCell>
        <mxCell id="Yf6FwdHeuCOzOSAr2f3k-19" value="" style="endArrow=none;dashed=1;html=1;dashPattern=1 3;strokeWidth=2;endSize=23;sourcePerimeterSpacing=2;targetPerimeterSpacing=2;entryX=0.5;entryY=0;entryDx=0;entryDy=0;exitX=0.5;exitY=1;exitDx=0;exitDy=0;startArrow=classic;startFill=1;" edge="1" parent="WIyWlLk6GJQsqaUBKTNV-1" source="Yf6FwdHeuCOzOSAr2f3k-12" target="Yf6FwdHeuCOzOSAr2f3k-18">
          <mxGeometry width="50" height="50" relative="1" as="geometry">
            <mxPoint x="380" y="680" as="sourcePoint" />
            <mxPoint x="430" y="630" as="targetPoint" />
          </mxGeometry>
        </mxCell>
      </root>
    </mxGraphModel>
  </diagram>
</mxfile>
